<mxfile host="app.diagrams.net" modified="2024-06-12T07:37:33.627Z" agent="Mozilla/5.0 (Windows NT 10.0; Win64; x64) AppleWebKit/537.36 (KHTML, like Gecko) Chrome/125.0.0.0 Safari/537.36" version="24.4.9" etag="e3y2cFHfnhxSOn2SHfuS" type="github">
  <diagram name="第 1 页" id="EIIMtydjI0oj0VH4oGAn">
    <mxGraphModel>
      <root>
        <mxCell id="0" />
        <mxCell id="1" parent="0" />
      </root>
    </mxGraphModel>
  </diagram>
</mxfile>
